<?xml version="1.0" encoding="utf-8"?>
<!-- Generator: Adobe Illustrator 25.4.1, SVG Export Plug-In . SVG Version: 6.00 Build 0)  -->
<svg version="1.1" id="Layer_1" xmlns="http://www.w3.org/2000/svg" xmlns:xlink="http://www.w3.org/1999/xlink" x="0px" y="0px"
	 viewBox="0 0 560.1 86" style="enable-background:new 0 0 560.1 86;" xml:space="preserve">
<style type="text/css">
	.st0{fill:#2E2B28;}
</style>
<g>
	<g>
		<path class="st0" d="M95.9,37.4c-9.9,0-17.2,7.8-17.2,17.8c0,10.1,7.3,17.6,17.2,17.6s17.2-7.7,17.2-17.6
			C113.1,45.3,105.8,37.4,95.9,37.4z M95.9,24.7c17.3,0,30.4,13.1,30.4,30.4s-13.2,30.4-30.4,30.4S65.5,72.3,65.5,55.1
			S78.6,24.7,95.9,24.7z M414.3,37.4c-9.9,0-17.2,7.8-17.2,17.8c0,10.1,7.3,17.6,17.2,17.6s17.2-7.7,17.2-17.6
			S424.2,37.4,414.3,37.4z M414.3,24.7c17.3,0,30.4,13.1,30.4,30.4s-13.2,30.4-30.4,30.4s-30.4-13.2-30.4-30.4S397,24.7,414.3,24.7z
			 M226.3,37.4c-9.9,0-17.2,7.8-17.2,17.8c0,10.1,7.3,17.6,17.2,17.6s17.2-7.7,17.2-17.6S236.1,37.4,226.3,37.4z M226.3,24.7
			c17.3,0,30.4,13.1,30.4,30.4s-13.2,30.4-30.4,30.4s-30.4-13.2-30.4-30.4S209,24.7,226.3,24.7z M0,55.1c0-17.3,13.1-30.4,30.4-30.4
			s30.4,13.1,30.4,30.4H47.6c0-10.1-7.3-17.7-17.2-17.7s-17.2,7.7-17.2,17.7H0z M518,24.7c14.1,0,24,9.4,24,23.9v35.7h-13.6V51.1
			c0-8.7-4.8-14.2-12.8-14.2c-5.3,0-10.8,3.7-13.4,8c0.3,1.7,0.4,3.7,0.4,6.6v32.8h-13.4V51.1c0-8.7-5.1-14.2-12.8-14.2
			c-6,0-10.8,3.5-13.2,8.1v39.3h-13.4V25.9h13.4v7.7c2.8-4,8.8-8.8,17.8-8.8c8.2,0,13.9,2.9,17.8,9.4
			C502.7,29.3,509.4,24.7,518,24.7z M281.3,10.1v15.7h15.4v12.6h-15.4V62c0,7.4,4.6,10.4,11.1,10.4c1.4,0,3-0.2,4.3-0.4v12.4
			c-2,0.4-4.8,0.7-7.2,0.7c-12.9,0-21.5-8-21.5-22.7v-24h-11.3V25.9H268V10.1H281.3z M0,68.1l13.2-13l47.2,17.7l-4.5,11.9l-42.7-16
			v15.6H0V68.1z M352.5,24.7c14.2,0,26.3,9.3,28.1,22h-13.7c-1.5-5.3-7.4-9.3-14.4-9.3c-9.6,0-17.2,7.7-17.2,17.7
			c0,10.1,7.5,17.7,17.2,17.7c6.7,0,13.1-4.1,14.5-10h13.6c-1.5,13.4-13.8,22.6-28.1,22.6c-17.1,0-30.4-13.1-30.4-30.4
			C322.1,37.8,335.4,24.7,352.5,24.7z M160.7,37.3c-6.8,0-13.1,3.8-16,8.8V64c3,5,9.3,8.9,16,8.9c10,0,17.7-7.7,17.7-17.9
			S170.6,37.3,160.7,37.3z M144.6,0.5v33.2c3.2-5.2,10.9-9,18.8-9c15.8,0,28.2,13.3,28.2,30.3s-12.4,30.5-28.2,30.5
			c-7.7,0-15.5-3.8-18.8-9v7.9h-13.3V0.5H144.6z M320.9,76.8c0,4.8-3.8,8.6-8.7,8.6s-8.7-3.8-8.7-8.6c0-4.8,3.8-8.7,8.7-8.7
			S320.9,72,320.9,76.8z"/>
	</g>
	<g>
		<path class="st0" d="M545.5,33v-7.3h-2.7v-0.9h6.4v0.9h-2.7V33H545.5z M550.6,24.7h1.2l3.1,6.8l3.1-6.8h1V33h-1v-6.3l-2.8,6.3
			h-0.8l-2.8-6.3V33h-1V24.7z"/>
	</g>
</g>
</svg>
